HIERARCHY
ROOT Hips
{
	OFFSET 0.000000 89.005402 0.000000
	CHANNELS 6 Xposition Yposition Zposition Xrotation Yrotation Zrotation
	JOINT Spine
	{
		OFFSET 0.116900 10.681000 0.373400
		CHANNELS 3 Xrotation Yrotation Zrotation
		JOINT Spine1
		{
			OFFSET 0.000000 13.840401 0.053500
			CHANNELS 3 Xrotation Yrotation Zrotation
			JOINT Spine2
			{
				OFFSET 0.000000 14.712700 -0.366200
				CHANNELS 3 Xrotation Yrotation Zrotation
				JOINT Neck
				{
					OFFSET 0.000000 35.415497 -3.314200
					CHANNELS 3 Xrotation Yrotation Zrotation
					JOINT Head
					{
						OFFSET 0.000000 16.899200 1.218300
						CHANNELS 3 Xrotation Yrotation Zrotation
						JOINT HeadTop_End
						{
							OFFSET 0.000000 22.206207 2.192500
							CHANNELS 3 Xrotation Yrotation Zrotation
							End Site
							{
								OFFSET 0.000000 22.314178 0.000000
							}
						}
					}
				}
				JOINT LeftShoulder
				{
					OFFSET 12.896400 26.716293 -4.548400
					CHANNELS 3 Xrotation Yrotation Zrotation
					JOINT LeftArm
					{
						OFFSET 19.027000 -4.857010 -1.718400
						CHANNELS 3 Xrotation Yrotation Zrotation
						JOINT LeftForeArm
						{
							OFFSET 24.179897 0.000000 0.000000
							CHANNELS 3 Xrotation Yrotation Zrotation
							JOINT LeftHand
							{
								OFFSET 27.156403 0.000000 0.000000
								CHANNELS 3 Xrotation Yrotation Zrotation
								JOINT LeftHandIndex1
								{
									OFFSET 16.441200 0.000000 0.000000
									CHANNELS 3 Xrotation Yrotation Zrotation
									JOINT LeftHandIndex2
									{
										OFFSET 4.821899 0.000000 0.000000
										CHANNELS 3 Xrotation Yrotation Zrotation
										JOINT LeftHandIndex3
										{
											OFFSET 6.386497 0.000000 0.000000
											CHANNELS 3 Xrotation Yrotation Zrotation
											JOINT LeftHandIndex4
											{
												OFFSET 5.188988 0.000000 0.000000
												CHANNELS 3 Xrotation Yrotation Zrotation
												End Site
												{
													OFFSET -0.178703 5.185913 0.000177
												}
											}
										}
									}
								}
								JOINT LeftHandThumb1
								{
									OFFSET 6.534897 -5.032593 5.900300
									CHANNELS 3 Xrotation Yrotation Zrotation
									JOINT LeftHandThumb2
									{
										OFFSET 3.818176 -2.204422 2.204423
										CHANNELS 3 Xrotation Yrotation Zrotation
										JOINT LeftHandThumb3
										{
											OFFSET 3.252098 -1.877594 1.877601
											CHANNELS 3 Xrotation Yrotation Zrotation
											JOINT LeftHandThumb4
											{
												OFFSET 5.251778 -3.032120 3.032117
												CHANNELS 3 Xrotation Yrotation Zrotation
												End Site
												{
													OFFSET 0.000023 6.780014 0.000000
												}
											}
										}
									}
								}
							}
						}
					}
				}
				JOINT RightShoulder
				{
					OFFSET -12.896300 26.716293 -4.548400
					CHANNELS 3 Xrotation Yrotation Zrotation
					JOINT RightArm
					{
						OFFSET -19.027000 -4.857010 -1.718400
						CHANNELS 3 Xrotation Yrotation Zrotation
						JOINT RightForeArm
						{
							OFFSET -24.179897 0.000000 0.000000
							CHANNELS 3 Xrotation Yrotation Zrotation
							JOINT RightHand
							{
								OFFSET -27.156403 0.000000 0.000000
								CHANNELS 3 Xrotation Yrotation Zrotation
								JOINT RightHandThumb1
								{
									OFFSET -6.591202 -4.852203 5.988100
									CHANNELS 3 Xrotation Yrotation Zrotation
									JOINT RightHandThumb2
									{
										OFFSET -3.818176 -2.204422 2.204423
										CHANNELS 3 Xrotation Yrotation Zrotation
										JOINT RightHandThumb3
										{
											OFFSET -3.252098 -1.877594 1.877601
											CHANNELS 3 Xrotation Yrotation Zrotation
											JOINT RightHandThumb4
											{
												OFFSET -5.251778 -3.032120 3.032117
												CHANNELS 3 Xrotation Yrotation Zrotation
												End Site
												{
													OFFSET -0.000023 6.780014 0.000000
												}
											}
										}
									}
								}
								JOINT RightHandIndex1
								{
									OFFSET -16.029404 0.000000 0.000000
									CHANNELS 3 Xrotation Yrotation Zrotation
									JOINT RightHandIndex2
									{
										OFFSET -5.213303 0.000000 0.000000
										CHANNELS 3 Xrotation Yrotation Zrotation
										JOINT RightHandIndex3
										{
											OFFSET -6.386528 0.000000 0.000000
											CHANNELS 3 Xrotation Yrotation Zrotation
											JOINT RightHandIndex4
											{
												OFFSET -5.189026 0.000000 0.000000
												CHANNELS 3 Xrotation Yrotation Zrotation
												End Site
												{
													OFFSET 0.236702 5.183624 0.001972
												}
											}
										}
									}
								}
							}
						}
					}
				}
			}
		}
	}
	JOINT LeftUpLeg
	{
		OFFSET 14.073000 -7.904099 -1.463000
		CHANNELS 3 Xrotation Yrotation Zrotation
		JOINT LeftLeg
		{
			OFFSET -0.109806 -34.073280 4.093200
			CHANNELS 3 Xrotation Yrotation Zrotation
			JOINT LeftFoot
			{
				OFFSET 0.109806 -29.899420 -6.319000
				CHANNELS 3 Xrotation Yrotation Zrotation
				JOINT LeftToeBase
				{
					OFFSET 1.551100 -14.988700 20.535801
					CHANNELS 3 Xrotation Yrotation Zrotation
					JOINT LeftToe_End
					{
						OFFSET 0.221200 0.570800 13.248301
						CHANNELS 3 Xrotation Yrotation Zrotation
						End Site
						{
							OFFSET 0.000000 13.262435 0.000000
						}
					}
				}
			}
		}
	}
	JOINT RightUpLeg
	{
		OFFSET -13.839300 -7.904099 -1.463000
		CHANNELS 3 Xrotation Yrotation Zrotation
		JOINT RightLeg
		{
			OFFSET 0.109694 -34.073219 4.093300
			CHANNELS 3 Xrotation Yrotation Zrotation
			JOINT RightFoot
			{
				OFFSET -0.109694 -29.899384 -6.319200
				CHANNELS 3 Xrotation Yrotation Zrotation
				JOINT RightToeBase
				{
					OFFSET -1.551100 -14.988700 20.535801
					CHANNELS 3 Xrotation Yrotation Zrotation
					JOINT RightToe_End
					{
						OFFSET -0.221200 0.570900 13.248299
						CHANNELS 3 Xrotation Yrotation Zrotation
						End Site
						{
							OFFSET 0.000000 13.262440 0.000000
						}
					}
				}
			}
		}
	}
}
MOTION
Frames: 4
Frame Time: 0.033333
1.408730 60.119774 0.056534 47.289832 7.089607 -4.805920 -2.703869 0.160125 1.688012 -5.406982 -0.342854 0.506053 -5.406975 -0.342850 0.506051 0.082898 1.251986 -3.618697 -11.238398 -8.186715 -1.084807 0.000001 0.000000 -0.000000 9.654885 -21.966530 21.386605 -52.316596 -35.255152 -29.786687 2.178079 -39.943431 5.637613 16.951592 4.703505 82.762912 -3.249124 -3.487684 -45.487690 -11.741037 -5.662298 -117.786298 0.000008 -0.000000 -0.000001 0.000001 0.000000 0.000000 -22.329924 -10.232726 -0.665751 -13.008775 33.638811 5.466842 -0.000000 0.000011 0.000002 -0.000001 0.000001 0.000001 3.471277 10.192041 -17.151607 -60.484276 28.912638 47.085135 19.363960 43.992347 -22.890517 30.004884 -22.328606 -65.535228 -31.480567 10.386562 -14.209255 -13.008706 -33.638835 -5.466810 0.000009 0.000009 -0.000007 -0.000000 -0.000001 0.000001 -3.485971 1.851576 32.874424 -8.875873 5.007762 106.188186 0.000007 0.000010 -0.000004 -0.000001 0.000000 -0.000000 -57.180602 -8.131327 10.520954 85.713348 13.677000 0.076612 26.230677 -1.168198 -8.736183 19.640706 18.791338 51.299263 -0.000000 -0.000001 -0.000000 -41.119006 -7.882641 3.610128 83.294471 -15.753177 -1.054340 -49.098221 -9.431492 12.776570 -43.250189 -5.971233 7.783864 0.000000 -0.000000 0.000000 
1.621236 60.661514 1.661797 46.679487 6.609110 -4.467127 -2.651552 0.199712 1.454165 -5.301159 -0.295258 0.433311 -5.301151 -0.295261 0.433312 0.607818 1.528382 -3.797806 -11.495320 -8.212024 -0.873859 -0.000003 -0.000000 -0.000000 9.747103 -21.838488 21.633888 -52.043747 -34.752863 -30.647421 2.751207 -40.464906 6.112980 17.203587 5.172980 83.122241 -3.249123 -3.487683 -45.487694 -11.741037 -5.662296 -117.786298 0.000009 0.000000 -0.000001 -0.000000 0.000000 -0.000000 -22.329924 -10.232724 -0.665752 -13.008772 33.638808 5.466841 -0.000001 0.000013 0.000002 -0.000000 -0.000002 0.000000 3.528340 10.460667 -16.986259 -59.844745 28.771014 47.180631 19.414563 43.788281 -22.445067 29.371661 -22.250620 -66.706872 -31.480571 10.386562 -14.209257 -13.008702 -33.638835 -5.466810 0.000008 0.000006 -0.000008 0.000001 -0.000001 0.000001 -3.485971 1.851576 32.874421 -8.875874 5.007762 106.188186 0.000006 0.000010 -0.000004 0.000000 -0.000000 -0.000002 -64.085759 -10.023840 9.474704 94.015833 11.417670 -0.065103 14.420165 -0.639280 -13.912191 26.398505 21.686308 58.066519 0.000003 -0.000000 -0.000002 -37.807050 -7.472683 3.689742 79.579661 -16.032949 -1.058713 -48.770317 -9.188099 12.588881 -42.667628 -5.683924 8.286896 -0.000000 0.000000 0.000000 
1.774142 61.056923 3.152607 46.234606 6.276657 -4.164386 -2.643992 0.260384 1.235262 -5.284766 -0.240426 0.372937 -5.284777 -0.240425 0.372937 1.074736 1.767074 -3.933628 -11.739292 -8.239154 -0.664376 -0.000001 0.000000 -0.000000 9.872945 -21.907120 21.923340 -51.921616 -34.424587 -31.484556 3.102159 -40.571167 6.417388 17.473499 5.459175 83.441976 -3.249124 -3.487684 -45.487694 -11.741037 -5.662296 -117.786298 0.000011 -0.000000 -0.000002 -0.000002 -0.000000 -0.000000 -22.329922 -10.232723 -0.665751 -13.008772 33.638811 5.466842 -0.000001 0.000013 0.000003 -0.000003 -0.000000 -0.000000 3.602499 10.823060 -16.809545 -59.102515 28.570423 46.908882 19.381780 43.573830 -21.983823 28.846966 -22.086687 -67.619453 -31.480567 10.386561 -14.209256 -13.008702 -33.638835 -5.466809 0.000011 0.000010 -0.000009 0.000000 0.000000 0.000002 -3.485971 1.851577 32.874424 -8.875873 5.007763 106.188186 0.000005 0.000010 -0.000004 -0.000001 0.000000 0.000002 -71.568163 -11.080088 7.685932 100.403398 11.390536 -0.291198 5.883466 0.515202 -14.948583 -32.072280 20.666624 -19.519941 -0.000002 -0.000004 0.000002 -34.787591 -7.188441 3.774401 76.133182 -16.495783 -1.088106 -48.580328 -8.969557 12.424410 -42.082076 -5.417935 8.821781 0.000001 -0.000000 0.000000 
1.913640 61.209789 4.518654 45.917067 6.022074 -3.901936 -2.655626 0.353954 1.071518 -5.306569 -0.189399 0.315690 -5.306595 -0.189400 0.315689 1.540025 1.950416 -4.006131 -11.946672 -8.250126 -0.499827 0.000001 -0.000000 0.000000 9.992473 -22.114923 22.144255 -51.901279 -34.235271 -32.099488 3.305675 -40.502270 6.627295 17.724390 5.671060 83.584604 -3.249123 -3.487682 -45.487690 -11.741039 -5.662296 -117.786298 0.000010 -0.000000 -0.000001 0.000001 -0.000000 0.000000 -22.329920 -10.232723 -0.665751 -13.008771 33.638815 5.466841 0.000003 0.000013 0.000001 -0.000002 -0.000000 0.000001 3.689203 11.207566 -16.722649 -58.418963 28.330769 46.429355 19.191163 43.373972 -21.533595 28.469217 -21.836854 -68.239122 -31.480571 10.386564 -14.209257 -13.008704 -33.638835 -5.466810 0.000011 0.000005 -0.000009 0.000001 -0.000002 -0.000001 -3.485971 1.851577 32.874431 -8.875873 5.007762 106.188186 0.000007 0.000010 -0.000007 0.000000 0.000001 0.000003 -79.612275 -11.176290 5.392335 105.272319 12.982961 -0.364957 0.829712 1.110786 -12.720659 -32.083239 29.459364 -34.243229 0.000001 0.000002 -0.000001 -32.017263 -6.977976 3.919745 73.152610 -17.291432 -1.153870 -48.724398 -8.857530 12.339328 -41.493519 -5.148109 9.533441 0.000001 0.000001 0.000000 
